<svg width="31" height="25" viewBox="0 0 31 25" fill="none" xmlns="http://www.w3.org/2000/svg">
<path d="M18.6536 25V22.2222C23.7966 22.2222 27.9804 17.8611 27.9804 12.5C27.9804 7.13889 23.7966 2.77778 18.6536 2.77778V0C25.2623 0 30.6452 5.61111 30.6452 12.5C30.6452 19.3889 25.2623 25 18.6536 25ZM18.6536 19.4444V16.6667C20.852 16.6667 22.6508 14.7917 22.6508 12.5C22.6508 10.2083 20.852 8.33333 18.6536 8.33333V5.55556C22.331 5.55556 25.3156 8.66667 25.3156 12.5C25.3156 16.3333 22.331 19.4444 18.6536 19.4444ZM0 12.5V18.0556H6.66199L14.6564 25V0L6.66199 6.94444H0V12.5Z" fill="#A4A099"/>
</svg>
