<svg width="55" height="61" viewBox="0 0 55 61" fill="none" xmlns="http://www.w3.org/2000/svg">
<path fill-rule="evenodd" clip-rule="evenodd" d="M1.16504 4.78179H20.1756V1.86645C20.1756 0.839903 21.014 0 22.042 0H32.5378C33.5654 0 34.4043 0.839407 34.4043 1.86645V4.78229H53.183C53.8248 4.78229 54.348 5.30698 54.348 5.94832V11.6638H0V5.94783C0 5.30648 0.523698 4.78179 1.16504 4.78179ZM4.31369 14.6958H50.4394C51.4009 14.6958 52.2741 15.4896 52.1872 16.4451L48.2835 59.2489C48.1971 60.205 47.4942 60.9967 46.5347 60.9967H8.16324C7.20321 60.9967 6.49932 60.2065 6.41394 59.2489L2.56439 16.4451C2.47901 15.4861 3.35117 14.6958 4.31369 14.6958ZM34.2896 21.3441H39.187V53.7657H34.2896V21.3441ZM14.9276 21.3441H19.8256V53.7657H14.9276V21.3441ZM24.6074 21.3441H29.5063V53.7657H24.6074V21.3441Z" fill="#A4A099"/>
</svg>
