<svg width="32" height="27" viewBox="0 0 32 27" fill="none" xmlns="http://www.w3.org/2000/svg">
<path d="M20.5492 22.3757C20.5492 20.1867 21.7565 18.29 23.5278 17.2657C22.4194 16.9113 21.226 16.6304 19.9715 16.4348C22.6669 14.9398 24.4934 12.0683 24.4934 8.76637C24.4934 3.92455 20.5688 0 15.727 0C10.8852 0 6.96061 3.92455 6.96061 8.76637C6.96061 12.0671 8.78709 14.9398 11.4825 16.4348C4.86023 17.4671 0 20.8496 0 24.8685H21.1189C20.7633 24.1066 20.5492 23.2699 20.5492 22.3757Z" fill="#9E9A94"/>
<path d="M26.4751 17.7525C23.9224 17.7525 21.8508 19.8207 21.8508 22.3768C21.8508 24.9307 23.9224 27 26.4751 27C29.029 27 31.0994 24.9307 31.0994 22.3768C31.0971 19.8196 29.029 17.7525 26.4751 17.7525ZM29.4939 23.1963H27.2969V25.3945H25.6545V23.1963H23.4563V21.5517H25.6545V19.3523H27.2969V21.5517H29.4939V23.1963Z" fill="#9E9A94"/>
</svg>
