<svg width="29" height="29" viewBox="0 0 29 29" fill="none" xmlns="http://www.w3.org/2000/svg">
<g clip-path="url(#clip0_31_623)">
<path d="M21.3468 1.18593C21.3468 0.474372 21.3468 0 21.3468 0H7.11559V1.18593H0V7.47136C0 10.6497 2.54975 13.0452 5.92965 13.0452H8.08805C8.87076 14.3972 10.0686 15.4764 11.5391 16.0694C9.62976 17.0655 8.31338 19.046 8.30152 21.3468H5.92965V26.0905H22.5327V21.3468H20.232C20.2201 19.0342 18.8919 17.0537 16.9707 16.0575H16.9588C18.4056 15.4527 19.5916 14.3853 20.3624 13.0452H22.5327C25.9126 13.0452 28.4623 10.6497 28.4623 7.47136V1.18593H21.3468ZM5.92965 10.6734C3.86613 10.6734 2.37186 9.32142 2.37186 7.47136V3.55779H7.11559V9.48745C7.11559 9.89066 7.15116 10.282 7.22232 10.6734H5.92965ZM26.0905 7.47136C26.0905 9.32142 24.5962 10.6734 22.5327 10.6734H21.24C21.3112 10.282 21.3468 9.89066 21.3468 9.48745C21.3468 9.40443 21.3468 6.21428 21.3468 3.55779H26.0905V7.47136Z" fill="#A4A099"/>
</g>
<defs>
<clipPath id="clip0_31_623">
<rect width="28.4623" height="28.4623" fill="white"/>
</clipPath>
</defs>
</svg>
