<svg width="58" height="58" viewBox="0 0 58 58" fill="none" xmlns="http://www.w3.org/2000/svg">
<path d="M4 27V54.2226H53.0602V27H4ZM16.6085 47.0011H12.0759V41.0166H16.6085V47.0011ZM16.6085 37.5779H12.0759V37.0348C12.0759 34.1837 13.9949 31.7741 16.6085 31.0251V37.5779ZM24.5799 47.0011H20.0473V41.0166H24.5799V47.0011ZM24.5799 37.5779H20.0473V31.0251C22.6609 31.7741 24.5799 34.1837 24.5799 37.0348V37.5779ZM37.0129 47.0011H32.4803V41.0166H37.0129V47.0011ZM37.0129 37.5779H32.4803V37.0348C32.4803 34.1837 34.3992 31.7741 37.0129 31.0251V37.5779ZM44.9843 47.0011H40.4516V41.0166H44.9843V47.0011ZM44.9843 37.5779H40.4516V31.0251C43.0653 31.7741 44.9843 34.1837 44.9843 37.0348V37.5779Z" fill="#3E4059"/>
<path d="M51.8938 8.54809L28.9999 0L6.10625 8.54809L0.496338 27.3386H57.5038L51.8938 8.54809ZM17.7732 23.5559H12.109V14.5788H17.7732V23.5559ZM27.2806 23.5559H22.7479V17.5715H27.2806V23.5559ZM27.2806 14.1326H22.7479V13.5894C22.7479 10.7384 24.6669 8.32889 27.2806 7.57988V14.1326ZM35.252 23.5559H30.7194V17.5715H35.252V23.5559ZM35.252 14.1326H30.7194V7.57988C33.3331 8.32889 35.252 10.7384 35.252 13.5894V14.1326ZM45.891 23.5559H40.2268V14.5788H45.891V23.5559Z" fill="#3E4059"/>
</svg>
