<svg width="76" height="62" viewBox="0 0 76 62" fill="none" xmlns="http://www.w3.org/2000/svg">
<path d="M46.2609 62V55.1111C59.0157 55.1111 69.3913 44.2956 69.3913 31C69.3913 17.7044 59.0157 6.88889 46.2609 6.88889V0C62.6504 0 76 13.9156 76 31C76 48.0844 62.6504 62 46.2609 62ZM46.2609 48.2222V41.3333C51.713 41.3333 56.1739 36.6833 56.1739 31C56.1739 25.3167 51.713 20.6667 46.2609 20.6667V13.7778C55.3809 13.7778 62.7826 21.4933 62.7826 31C62.7826 40.5067 55.3809 48.2222 46.2609 48.2222ZM0 31V44.7778H16.5217L36.3478 62V0L16.5217 17.2222H0V31Z" fill="#A4A099"/>
</svg>
