<svg width="57" height="57" viewBox="0 0 57 57" fill="none" xmlns="http://www.w3.org/2000/svg">
<path d="M42.75 4.75C42.75 3.325 42.75 2.375 42.75 2.375H14.25V4.75H0V17.3375C0 23.7025 5.10625 28.5 11.875 28.5H16.1975C17.765 31.2075 20.1637 33.3688 23.1087 34.5563C19.285 36.5513 16.6487 40.5175 16.625 45.125H11.875V54.625H45.125V45.125H40.5175C40.4937 40.4937 37.8338 36.5275 33.9863 34.5325H33.9625C36.86 33.3212 39.235 31.1837 40.7788 28.5H45.125C51.8937 28.5 57 23.7025 57 17.3375V4.75H42.75ZM11.875 23.75C7.7425 23.75 4.75 21.0425 4.75 17.3375V9.5H14.25V21.375C14.25 22.1825 14.3213 22.9662 14.4638 23.75H11.875ZM52.25 17.3375C52.25 21.0425 49.2575 23.75 45.125 23.75H42.5362C42.6787 22.9662 42.75 22.1825 42.75 21.375C42.75 21.2087 42.75 14.82 42.75 9.5H52.25V17.3375Z" fill="#A4A099"/>
</svg>
