<svg width="36" height="36" viewBox="0 0 36 36" fill="none" xmlns="http://www.w3.org/2000/svg">
<path d="M2.41846 16.3243V32.7831H32.0804V16.3243H2.41846ZM10.0416 28.417H7.30119V24.7988H10.0416V28.417ZM10.0416 22.7197H7.30119V22.3913C7.30119 20.6676 8.46141 19.2107 10.0416 18.7579V22.7197ZM14.8611 28.417H12.1207V24.7988H14.8611V28.417ZM14.8611 22.7197H12.1207V18.7579C13.7009 19.2107 14.8611 20.6676 14.8611 22.3913V22.7197ZM22.3781 28.417H19.6377V24.7988H22.3781V28.417ZM22.3781 22.7197H19.6377V22.3913C19.6377 20.6676 20.7979 19.2107 22.3781 18.7579V22.7197ZM27.1976 28.417H24.4572V24.7988H27.1976V28.417ZM27.1976 22.7197H24.4572V18.7579C26.0374 19.2107 27.1976 20.6676 27.1976 22.3913V22.7197Z" fill="#3E4059"/>
<path d="M31.3751 5.1682L17.5334 0L3.69182 5.1682L0.300049 16.529H34.7669L31.3751 5.1682ZM10.7457 14.242H7.32111V8.81441H10.7457V14.242ZM16.4939 14.242H13.7534V10.6238H16.4939V14.242ZM16.4939 8.54462H13.7534V8.21621C13.7534 6.49245 14.9136 5.03567 16.4939 4.58281V8.54462ZM21.3134 14.242H18.573V10.6238H21.3134V14.242ZM21.3134 8.54462H18.573V4.58281C20.1532 5.03567 21.3134 6.49245 21.3134 8.21621V8.54462ZM27.7457 14.242H24.3212V8.81441H27.7457V14.242Z" fill="#3E4059"/>
</svg>
