<svg width="62" height="62" viewBox="0 0 62 62" fill="none" xmlns="http://www.w3.org/2000/svg">
<path fill-rule="evenodd" clip-rule="evenodd" d="M60.6413 1.99377C60.2826 0.611145 58.8966 -0.241897 57.5007 0.0610261C22.9818 7.55181 6.85147 33.9814 0.100888 57.8243C-0.224955 58.975 0.257027 60.2019 1.27909 60.8233C1.74782 61.1084 2.27733 61.2337 2.79737 61.2071C3.42224 58.1828 6.12975 55.9042 9.38043 55.8879L10.1487 55.1662C11.2199 54.1597 11.2724 52.4753 10.2659 51.4044C9.6885 50.7897 8.88798 50.5105 8.10814 50.5741L8.2115 50.3058C8.29752 50.1842 8.37443 50.0538 8.44086 49.9149C8.98637 48.7743 9.59677 48.1244 10.2095 47.7129C10.8402 47.2892 11.6394 47.0071 12.7202 46.8539C13.8237 46.6976 15.106 46.6897 16.657 46.7429C17.1593 46.7602 17.7054 46.7847 18.2784 46.8105C19.3736 46.86 20.567 46.9137 21.7394 46.9286C25.4345 46.9765 29.7073 46.675 34.1483 44.7163C38.6118 42.7477 43.0208 39.2063 47.1948 33.1364C47.8417 32.1954 47.8165 30.9464 47.1314 30.0323C47.0508 29.925 46.9632 29.825 46.8698 29.7329C49.6525 28.1576 52.0974 26.0262 54.1142 23.6368C56.8133 20.4388 58.8404 16.691 60.0039 12.9588C61.1584 9.25459 61.5185 5.37741 60.6413 1.99377ZM16.8394 41.4235C15.2829 41.3702 13.6696 41.3596 12.1281 41.5629C20.2858 25.7116 33.8699 11.5751 55.8065 5.93139C55.819 7.57001 55.5313 9.42087 54.9224 11.3747C53.9707 14.427 52.2893 17.5465 50.0466 20.2037C45.5485 25.5333 39.1704 28.6537 32.0711 26.4879C31.0079 26.1635 29.855 26.5342 29.1799 27.4175C28.505 28.3008 28.4501 29.5104 29.0423 30.4512C30.7548 33.1713 34.21 35.0347 38.6001 35.2306C36.3364 37.4733 34.1177 38.9125 32.0003 39.8464C28.56 41.3638 25.1607 41.6499 21.8081 41.6066C20.7073 41.5925 19.6885 41.5461 18.6583 41.4993C18.0619 41.4722 17.4616 41.4448 16.8394 41.4235Z" fill="#A4A099"/>
</svg>
